Coordinates
version=1
nRows=38
nColumns=38
inDegrees=no

Units are S.I. units (second, meters, Newtons, ...)
If the header above contains a line with 'inDegrees', this indicates whether rotational values are in degrees (yes) or radians (no).

endheader
time	pelvis_tilt	pelvis_list	pelvis_rotation	pelvis_tx	pelvis_ty	pelvis_tz	hip_flexion_r	hip_adduction_r	hip_rotation_r	knee_angle_r	ankle_angle_r	subtalar_angle_r	mtp_angle_r	hip_flexion_l	hip_adduction_l	hip_rotation_l	knee_angle_l	ankle_angle_l	subtalar_angle_l	mtp_angle_l	lumbar_extension	lumbar_bending	lumbar_rotation	arm_flex_r	arm_add_r	arm_rot_r	elbow_flex_r	pro_sup_r	wrist_flex_r	wrist_dev_r	arm_flex_l	arm_add_l	arm_rot_l	elbow_flex_l	pro_sup_l	wrist_flex_l	wrist_dev_l
0	2.89265	1.39355	-1.22259	0.618902	0.370069	1.05051	-0.251298	-0.00517296	-0.104779	0	-0.581324	0	0	-0.29629	-0.154696	-0.345257	0.0543821	-0.380089	0	0	-0.29769	0.0853579	-0.18273	-0.65667	-0.929404	0.478723	1.82916	1.29783	0	0	-0.995758	-0.346919	0.00604076	1.7505	0.728794	0	0
0.01	2.89387	1.39301	-1.2247	0.618978	0.369638	1.05034	-0.252053	-0.0057517	-0.101537	0	-0.581645	0	0	-0.296314	-0.154759	-0.347367	0.0554391	-0.378395	0	0	-0.296376	0.0852707	-0.181248	-0.66295	-0.924374	0.469571	1.82048	1.36588	0	0	-0.987511	-0.363724	0.0167243	1.74616	0.756689	0	0
0.02	2.88912	1.39474	-1.22001	0.619004	0.369291	1.05013	-0.249539	-0.00563781	-0.100609	0	-0.581526	0	0	-0.293661	-0.155136	-0.34729	0.0561821	-0.377387	0	0	-0.293484	0.0851946	-0.183853	-0.650978	-0.929207	0.482835	1.81009	1.39698	0	0	-0.982434	-0.361137	0.0102253	1.73911	0.776303	0	0
0.03	2.88207	1.39779	-1.21293	0.619083	0.368981	1.04988	-0.24552	-0.00556468	-0.0989988	0	-0.581332	0	0	-0.289281	-0.155622	-0.347306	0.0573211	-0.376633	0	0	-0.288369	0.0848498	-0.186981	-0.636987	-0.935013	0.499212	1.79822	1.42882	0	0	-0.976585	-0.357969	0.00248736	1.73009	0.799954	0	0
0.04	2.87286	1.40249	-1.20519	0.61925	0.368587	1.04952	-0.239016	-0.00631513	-0.0938633	0	-0.581197	0	0	-0.283201	-0.155393	-0.34846	0.0585933	-0.376236	0	0	-0.281344	0.0839652	-0.188405	-0.622274	-0.941155	0.516716	1.78491	1.459	0	0	-0.968886	-0.354672	-0.0056322	1.71887	0.827164	0	0
0.05	2.85693	1.40862	-1.19159	0.619524	0.368098	1.04907	-0.230248	-0.00684926	-0.0843388	0	-0.581348	0	0	-0.275352	-0.155418	-0.348934	0.0596061	-0.376472	0	0	-0.272274	0.0834728	-0.187565	-0.609045	-0.94553	0.531183	1.7702	1.47832	0	0	-0.958328	-0.352876	-0.0123481	1.70547	0.849839	0	0
0.06	2.82694	1.41733	-1.16894	0.620453	0.36564	1.04975	-0.212284	-0.0070504	-0.0609727	0	-0.582091	0	0	-0.262059	-0.154133	-0.342241	0.0609166	-0.377884	0	0	-0.264675	0.0831938	-0.180992	-0.586622	-0.946421	0.548466	1.74942	1.48927	0	0	-0.938129	-0.352381	-0.0163081	1.68549	0.865334	0	0
0.07	2.90009	1.39197	-1.23169	0.619052	0.366628	1.05006	-0.248168	-0.00727409	-0.100872	0	-0.585217	0	0	-0.295011	-0.154043	-0.349402	0.0550985	-0.379655	0	0	-0.290391	0.0887721	-0.184298	-0.603488	-0.949462	0.529288	1.74967	1.52473	0	0	-0.923244	-0.501724	0.144098	1.70073	1.19241	0	0
0.08	2.89107	1.39364	-1.22428	0.619292	0.365928	1.05	-0.243797	-0.00655762	-0.0959463	0	-0.585859	0	0	-0.291914	-0.154933	-0.350034	0.0559613	-0.379258	0	0	-0.288323	0.0899695	-0.185997	-0.582233	-0.953496	0.547938	1.72997	1.55575	0	0	-0.909123	-0.49751	0.137962	1.67624	1.24938	0	0
0.09	2.88208	1.3955	-1.21645	0.619518	0.365211	1.04995	-0.239191	-0.00578713	-0.0916903	0	-0.586837	0	0	-0.288263	-0.155948	-0.350167	0.0572918	-0.378693	0	0	-0.285712	0.090723	-0.188583	-0.556132	-0.957403	0.571947	1.70809	1.5708	0	0	-0.894315	-0.48969	0.127661	1.64881	1.31636	0	0
0.1	2.87468	1.39714	-1.21032	0.619762	0.364423	1.0499	-0.234694	-0.00531893	-0.087542	0	-0.588071	0	0	-0.284708	-0.15681	-0.350653	0.0590301	-0.378047	0	0	-0.28323	0.0908687	-0.191531	-0.524494	-0.961403	0.602253	1.68427	1.5708	0	0	-0.878293	-0.478659	0.114313	1.61908	1.38343	0	0
0.11	2.86783	1.3986	-1.20466	0.619999	0.363594	1.04989	-0.230401	-0.00488002	-0.0836797	0	-0.589444	0	0	-0.281521	-0.157489	-0.350674	0.0601918	-0.377791	0	0	-0.28084	0.0909473	-0.194208	-0.490219	-0.964145	0.635598	1.65834	1.5708	0	0	-0.85988	-0.465859	0.0993664	1.58654	1.45573	0	0
0.12	2.86116	1.40008	-1.19929	0.620241	0.362731	1.04988	-0.226068	-0.0045223	-0.0798955	0	-0.590556	0	0	-0.2781	-0.158166	-0.351205	0.0618494	-0.377399	0	0	-0.278155	0.0909461	-0.196529	-0.453768	-0.965397	0.671286	1.63035	1.5708	0	0	-0.838794	-0.452762	0.0846788	1.55119	1.53611	0	0
0.13	2.89102	1.40119	-1.23247	0.620369	0.361863	1.0507	-0.223983	-0.0113184	-0.0766103	0	-0.593	0	0	-0.278442	-0.150553	-0.353597	0.0603568	-0.382522	0	0	-0.276295	0.0842068	-0.199934	-0.403719	-0.966266	0.723365	1.59644	1.5708	0	0	-0.814992	-0.43732	0.0713368	1.51115	1.5708	0	0
0.14	2.89049	1.40181	-1.23348	0.62062	0.360791	1.05071	-0.220568	-0.0118089	-0.0730413	0	-0.593093	0	0	-0.275609	-0.150596	-0.354656	0.0631587	-0.380649	0	0	-0.274019	0.084005	-0.195847	-0.379256	-0.96102	0.745675	1.5663	1.5708	0	0	-0.782999	-0.431902	0.0710288	1.47143	1.5708	0	0
0.15	2.88467	1.40333	-1.22905	0.620906	0.359636	1.05061	-0.215689	-0.0116535	-0.0683797	0	-0.592585	0	0	-0.270978	-0.151536	-0.355441	0.066925	-0.378113	0	0	-0.270761	0.0843973	-0.190764	-0.357039	-0.953897	0.764983	1.53494	1.5708	0	0	-0.748684	-0.426469	0.0720034	1.42901	1.5708	0	0
0.16	2.84692	1.40636	-1.19267	0.621514	0.358347	1.0497	-0.207162	-0.00624871	-0.059664	0	-0.591251	0	0	-0.262653	-0.158307	-0.35368	0.0714989	-0.375406	0	0	-0.264503	0.0889077	-0.184557	-0.337426	-0.945757	0.78087	1.50362	1.5708	0	0	-0.714337	-0.420588	0.0726808	1.38628	1.5708	0	0
0.17	2.85478	1.40859	-1.20366	0.621885	0.355474	1.05064	-0.198577	-0.00933844	-0.0482944	0	-0.589539	0	0	-0.255867	-0.154594	-0.346741	0.0748012	-0.375505	0	0	-0.266207	0.0866592	-0.17768	-0.310082	-0.932993	0.798997	1.46608	1.5708	0	0	-0.671853	-0.414192	0.0750221	1.33687	1.5708	0	0
0.18	2.86953	1.40347	-1.22047	0.622177	0.354271	1.05105	-0.201811	-0.010183	-0.0487127	0	-0.58568	0	0	-0.260074	-0.154288	-0.351655	0.077259	-0.373605	0	0	-0.274116	0.0858299	-0.172626	-0.289844	-0.921954	0.811288	1.43326	1.5708	0	0	-0.637305	-0.407611	0.0741096	1.29482	1.5708	0	0
0.19	2.87472	1.40124	-1.22668	0.62245	0.352788	1.05108	-0.200908	-0.0104548	-0.0482159	0	-0.579152	0	0	-0.25962	-0.154788	-0.351784	0.0808557	-0.370113	0	0	-0.279277	0.0857821	-0.168599	-0.270002	-0.910919	0.823206	1.40141	1.5708	0	0	-0.603833	-0.40228	0.0740174	1.25615	1.5708	0	0
0.2	2.89225	1.39234	-1.24464	0.622637	0.351144	1.05167	-0.208435	-0.0104032	-0.050884	0	-0.592597	0	0	-0.268097	-0.154765	-0.350662	0.080374	-0.375293	0	0	-0.29426	0.0861836	-0.162644	-0.257753	-0.897352	0.822549	1.37042	1.5708	0	0	-0.57017	-0.397223	0.0721838	1.22306	1.5708	0	0
0.21	2.90371	1.38663	-1.25685	0.622881	0.34937	1.05202	-0.211751	-0.0106185	-0.0520981	0	-0.600128	0	0	-0.271549	-0.15492	-0.349719	0.0829126	-0.377333	0	0	-0.305801	0.0864618	-0.156905	-0.244674	-0.884315	0.823568	1.33972	1.5708	0	0	-0.537704	-0.393359	0.0724239	1.19304	1.5708	0	0
0.22	2.90459	1.38687	-1.25929	0.62328	0.347736	1.05207	-0.207784	-0.0109801	-0.0501847	0	-0.605611	0	0	-0.268108	-0.155041	-0.348613	0.0860632	-0.378106	0	0	-0.319057	0.0832663	-0.135305	-0.26413	-0.859881	0.781227	1.3065	1.56947	0	0	-0.498764	-0.395135	0.0793443	1.17131	1.5708	0	0
0.23	2.90618	1.38487	-1.26327	0.623752	0.345981	1.05214	-0.204883	-0.0109253	-0.048815	0.00399672	-0.608507	0	0	-0.26727	-0.155784	-0.350344	0.089216	-0.378113	0	0	-0.324518	0.0844901	-0.128938	-0.255179	-0.848539	0.776076	1.27975	1.55561	0	0	-0.468562	-0.39457	0.0870711	1.14665	1.5708	0	0
0.24	2.89596	1.39005	-1.25623	0.624396	0.344208	1.05176	-0.19012	-0.0112256	-0.0473319	0.0171681	-0.599248	0	0	-0.256467	-0.157161	-0.352734	0.0969649	-0.37365	0	0	-0.316428	0.0841347	-0.139212	-0.187866	-0.852712	0.858909	1.25161	1.39792	0	0	-0.453794	-0.386136	0.0776167	1.12395	1.5708	0	0
0.25	2.89429	1.38987	-1.25742	0.624956	0.342442	1.05167	-0.184016	-0.0110635	-0.0466427	0.023887	-0.597667	0	0	-0.253364	-0.158211	-0.354735	0.100922	-0.372724	0	0	-0.319958	0.0847269	-0.138201	-0.169027	-0.845212	0.868755	1.22748	1.36613	0	0	-0.432578	-0.383992	0.0775758	1.10884	1.5708	0	0
0.26	2.89184	1.38981	-1.25772	0.62554	0.340774	1.05154	-0.178357	-0.0106177	-0.0451888	0.0293429	-0.595872	0	0	-0.250258	-0.159471	-0.356077	0.104675	-0.371805	0	0	-0.323617	0.0855075	-0.137566	-0.153104	-0.838749	0.875231	1.20632	1.33859	0	0	-0.413812	-0.382554	0.0768823	1.09826	1.5708	0	0
0.27	2.8859	1.39186	-1.25511	0.626214	0.339127	1.05132	-0.168964	-0.0101696	-0.0433226	0.0378316	-0.591749	0	0	-0.244729	-0.160613	-0.356389	0.108757	-0.370505	0	0	-0.324882	0.0859574	-0.137369	-0.135987	-0.832595	0.883948	1.18546	1.29708	0	0	-0.397223	-0.380946	0.0746332	1.09021	1.5708	0	0
0.28	2.8788	1.39459	-1.25142	0.626927	0.3375	1.05108	-0.158501	-0.00964456	-0.0414679	0.0469045	-0.587215	0	0	-0.238637	-0.161633	-0.355884	0.112283	-0.369592	0	0	-0.325654	0.0862841	-0.137909	-0.119202	-0.826273	0.892452	1.16508	1.26008	0	0	-0.382985	-0.379152	0.070178	1.08538	1.5708	0	0
0.29	2.8713	1.39736	-1.24721	0.627634	0.335897	1.05084	-0.148137	-0.00894133	-0.0395009	0.0557505	-0.582442	0	0	-0.233221	-0.16228	-0.354263	0.113988	-0.368974	0	0	-0.326504	0.0868589	-0.139308	-0.101934	-0.820253	0.902114	1.14529	1.22839	0	0	-0.370527	-0.376967	0.0636297	1.08297	1.5708	0	0
0.3	2.85959	1.40243	-1.2387	0.628327	0.334283	1.05039	-0.134055	-0.00838332	-0.0373877	0.0673702	-0.573341	0	0	-0.223422	-0.163949	-0.356777	0.12007	-0.367367	0	0	-0.324613	0.0874281	-0.143766	-0.0776641	-0.81487	0.92285	1.12469	1.18857	0	0	-0.361753	-0.372559	0.0510793	1.08268	1.5708	0	0
0.31	2.85313	1.40483	-1.23492	0.628973	0.332703	1.05014	-0.124961	-0.00749588	-0.0346861	0.0746547	-0.56758	0	0	-0.218292	-0.164815	-0.357653	0.122375	-0.367118	0	0	-0.326479	0.0884256	-0.146732	-0.0589213	-0.808833	0.935846	1.10535	1.16366	0	0	-0.352131	-0.370013	0.0414296	1.08433	1.5708	0	0
0.32	2.84767	1.40718	-1.23187	0.629641	0.331126	1.04989	-0.116345	-0.00662797	-0.0308494	0.0817408	-0.559585	0	0	-0.21345	-0.165506	-0.35875	0.124457	-0.366684	0	0	-0.328337	0.0892343	-0.151343	-0.036369	-0.802535	0.955123	1.08529	1.13444	0	0	-0.344275	-0.366363	0.0283138	1.08684	1.5708	0	0
0.33	2.84226	1.40959	-1.22859	0.630335	0.329569	1.04963	-0.108009	-0.00567933	-0.0258374	0.0886117	-0.549816	0	0	-0.209055	-0.166	-0.359402	0.125395	-0.366582	0	0	-0.330113	0.0900334	-0.157201	-0.0114416	-0.795573	0.978632	1.06451	1.10472	0	0	-0.337722	-0.361468	0.0121977	1.09002	1.5708	0	0
0.34	2.83709	1.41171	-1.22501	0.631033	0.328026	1.04938	-0.0998861	-0.0046446	-0.0208308	0.0963381	-0.539144	0	0	-0.205048	-0.166702	-0.360096	0.126013	-0.366795	0	0	-0.332366	0.0911192	-0.163273	0.0132184	-0.788017	1.00275	1.04371	1.07839	0	0	-0.331511	-0.356445	-0.0037832	1.09335	1.5708	0	0
0.35	2.8315	1.41349	-1.22039	0.631752	0.326496	1.04914	-0.0918945	-0.0033486	-0.0165144	0.104989	-0.528289	0	0	-0.201411	-0.167781	-0.360496	0.126276	-0.367274	0	0	-0.335168	0.0927206	-0.169423	0.0375274	-0.779858	1.02763	1.02283	1.05457	0	0	-0.325275	-0.351673	-0.0188901	1.09652	1.5708	0	0
0.36	2.8254	1.41506	-1.21472	0.6325	0.324999	1.04889	-0.0842827	-0.00182336	-0.0128089	0.113395	-0.518571	0	0	-0.197811	-0.169285	-0.360752	0.126649	-0.367831	0	0	-0.338153	0.0947996	-0.175605	0.0613646	-0.771176	1.05325	1.00195	1.03275	0	0	-0.319055	-0.346918	-0.0335342	1.09937	1.5708	0	0
0.37	2.82034	1.41609	-1.20893	0.63319	0.323534	1.04871	-0.079836	5.76227e-05	-0.00811379	0.116178	-0.513583	0	0	-0.194362	-0.171229	-0.361099	0.127531	-0.368541	0	0	-0.341932	0.0975045	-0.181499	0.0819972	-0.761823	1.07467	0.981376	1.01727	0	0	-0.311928	-0.342417	-0.0467154	1.10169	1.5708	0	0
